<?xml version="1.0" encoding="UTF-8"?>
    <svg id="uuid-b5935b07-16e9-47e0-a5b9-549729c383a5" xmlns="http://www.w3.org/2000/svg" viewBox="0 0 290.136793 359.244591">
        <polygon points="193.416995 14.9771 14.9761 14.9771 14.9761 193.417495 193.416995 14.9771" fill="#e52728"/>
        <path d="m67.953207,318.949688c21.579091,15.909203,48.248,25.319403,77.11519,25.319403,71.847698,0,130.09081-58.245199,130.09081-130.091797v-102.437497l-207.206,207.209891Z" fill="#e52728"/>
        <path d="m0,0v214.177295c0,80.118098,64.950207,145.067296,145.068396,145.067296s145.068396-64.949198,145.068396-145.067296V0H0Zm275.159207,214.177295c0,71.846598-58.243112,130.091797-130.09081,130.091797S14.9761,286.023893,14.9761,214.177295V14.9771h260.183107v199.200195Z" fill="#ca962c"/><path d="m275.159207,14.9771h-81.743111L14.9761,193.417495v20.759799c0,42.979393,20.847699,81.083898,52.977107,104.772393l207.206-207.209891V14.9771Z" fill="#fff"/><g id="uuid-a7411490-d1b5-49f4-bae0-13dcad7a3816"><path d="m137.873097,210.345195c-3.4434.6582-6.791,1.7451-9.96389,3.2383l-6.23241-8.584c-4.6709,2.418-8.9492,5.5264-12.6924,9.2227l6.2354,8.581c-2.3985,2.5567-4.4688,5.4034-6.1573,8.4756l-10.0908-3.2783c-2.3554,4.701194-3.9902,9.7324-4.8476,14.9209l10.0898,3.2764c-.4394,3.4775-.4394,6.999,0,10.4746l-10.0898,3.2812c.8574,5.1875,2.4922,10.2168,4.8476,14.919l10.0908-3.2793c1.6885,3.0722,3.7588,5.9209,6.1573,8.4756l-6.2354,8.581c3.7432,3.6963,8.0215,6.801795,12.6924,9.2227l6.23241-8.584c3.17289,1.493095,6.52049,2.582,9.96389,3.2392v10.6084c5.1992.7871,10.4863.7871,15.6875,0v-10.6084c3.4453-.6572,6.791-1.746105,9.9619-3.2392l6.2383,8.584c4.668-2.420904,8.9473-5.5264,12.691411-9.2227l-6.236311-8.581c2.3984-2.5547,4.4668-5.4034,6.1572-8.4756l10.0889,3.2793c2.3584-4.7022,3.9921-9.7315,4.8486-14.919l-10.0908-3.2812c.439411-3.4756.439411-6.9971,0-10.4746l10.0908-3.2764c-.8565-5.1885-2.4902-10.219706-4.8486-14.9209l-10.0889,3.2783c-1.6904-3.0722-3.7588-5.9189-6.1572-8.4756l6.236311-8.581c-3.744111-3.6963-8.023411-6.8047-12.691411-9.2227l-6.2383,8.584c-3.1709-1.4932-6.5166-2.5801-9.9619-3.2383v-10.6074c-5.2012-.789107-10.4883-.789107-15.6875,0v10.6074Z" fill="#ca962c"/></g><path d="m121.679697,234.539594l21.422899,12.368094v-24.736294c-8.6143.7705-16.4502,5.293-21.422899,12.3682Zm18.8076,7.8418l-14.8916-8.599706c3.8848-4.425694,9.1202-7.449194,14.8916-8.596594v17.1963Z" fill="#fff"/><path d="m119.067397,239.066894c-3.6416,7.843794-3.6416,16.8945,0,24.739299l21.419899-12.3692-21.419899-12.3701Zm1.29981,3.7734l14.89159,8.5967-14.89159,8.596694c-1.89061-5.575195-1.89061-11.617194,0-17.193394Z" fill="#fff"/><path d="m121.679697,268.332493c4.9727,7.075195,12.8086,11.5996,21.422899,12.3711v-24.737299l-21.422899,12.3662Zm18.8076,9.3545c-5.7714-1.1474-11.0068-4.1709-14.8916-8.5967l14.8916-8.596605v17.193305Z" fill="#fff"/><path d="m148.332096,255.966294v24.737299c8.6123-.7715,16.45111-5.295905,21.424799-12.3711l-21.424799-12.3662Zm2.6133,21.720699v-17.193305l14.8925,8.596605c-3.8838,4.4258-9.1152,7.4493-14.8925,8.5967Z" fill="#fff"/><path d="m172.369207,239.066894l-21.42381,12.3701,21.42381,12.3692c3.640589-7.8448,3.640589-16.895505,0-24.739299Zm-1.301811,20.966794l-14.8906-8.596694,14.8906-8.5967c1.8877,5.5762,1.8877,11.6182,0,17.193394Z" fill="#fff"/><path d="m148.332096,222.171394v24.736294l21.424799-12.368094c-4.973689-7.0752-12.8125-11.5977-21.424799-12.3682Zm2.6133,20.209999v-17.1963c5.7773,1.1474,11.0087,4.1709,14.8925,8.596594l-14.8925,8.599706Z" fill="#fff"/><path d="m120.666097,197.411595h6.1533c2.3721,3.8662,3.6562,7.7295,3.8486,11.5928,1.8643-3.6728,1.7393-7.4824,1.4248-11.5928,3.31741,0,25.370099.0137,27.211899.0137-.8847,3.6367-.3174,7.6152.5489,11.252,1.0771-4.1905,2.5888-7.9463,5.847611-11.2657h5.918v-9.9013h-51.11041l.1573,9.9013Z" fill="#ca962c"/><path d="m177.152396,68.584998c-6.5176,7.07469-10.5518,20.69669-11.9336,16.7299-4.1152-11.8217-2.9053-18.2905,2.4228-30.42521-16.2343,6.86761-16.8066,17.61031-12.2519,30.09321l1.165,3.0615-1.334-2.9736c-10.4462-23.53711-9.89549-47.940399-3.2451-53.267599-13.27339,2.4922-31.026299,35.025899-31.026299,52.535199,0,27.629899,14.7714,44.462899,23.855399,62.229498-3.2168-5.916-13.1543-15.7119-23.60449-24.824208-6.83-5.954091-10.090809-15.796891-11.778309-22.335-1.6738-7.44429,2.9785-14.84859,4.294-22.05469-12.1231,6.9258-24.543999,26.909199-20.320299,47.051799,7.1005,33.842699,28.250899,47.984299,32.054609,57.910099h10.85549c7.669-26.057599-1.47949-23.451099-20.959999-49.458999-3.6787-4.9121-5.5917-10.199209-6.3886-15.696209,5.9375,13.435509,23.091799,25.720708,33.446299,39.888608,4.8925,6.959.0136,22.956099-.8321,25.266599h24.608399c.2178-.0185.4463-.0293.6641-.0498,18.9951-14.1836,29.935499-31.724599,24.467799-66.122998-7.4073-35.135799-2.4951-43.138199,9.1045-55.459999,2.4072-2.5557-17.7413-1.35841-23.263699,7.9019Zm-12.7666,92.142098c.607411-3.903408,10.8633-27.264699,1.4316-53.890699-.0547-.1074-.04-.1123,0,0,9.5244,18.6817,17.8291,38.418999-1.4316,53.890699Z" fill="#ca962c"/>
    </svg>